:SAMPLES-PER-SECOND 30
:FULLY-SPECIFIED
:DEGREES
259
root  3.25746 31.3084 -32.3922 -166.107 7.04573 177.484
RightUpLeg  -51.8405 -0.89662 1.7779
RightLeg  73.4063 12.9552 -13.7401
RightFoot  -36.7458 1.50154 6.60172
RightToes  -1.16415e-010 -3.18055e-015 -2.98177e-016
Spine  39.5369 -4.09335 9.61595
Spine1  -6.04109 -2.36644 -4.49284
HEad  -18.0935 -3.29839 -6.32629
LeftShoulder1  -3.88251e-019 9.70628e-020 -3.87848e-018
LeftArm  -30.8909 52.4087 -44.1842
LeftForeArm  -2.92303 -42.285 10.2104
LeftHand  -6.07333 -10.7537 42.9374
RightShoulder  3.8183 8.13421 19.3932
RightArm  -9.60098 -40.8854 17.9024
RightForeArm  -3.63466 54.3789 -38.598
RightHand  -0.952583 4.3305 -11.3222
LeftUpLeg  -73.7827 6.81734 -7.43134
LeftLeg  63.5833 -6.59103 17.3325
LeftFoot  -14.7581 -0.0828063 -3.06234
LeftToes  1.69338e-011 3.79281e-011 -2.20049e-011
260
root  3.13254 31.0623 -32.9848 -166.376 7.10423 177.164
RightUpLeg  -51.1365 -0.923722 1.01279
RightLeg  74.8381 13.2187 -14.1663
RightFoot  -38.0569 1.83048 7.70838
RightToes  -1.16415e-010 -3.18055e-015 -2.98177e-016
Spine  39.4737 -4.15298 9.427
Spine1  -5.2534 -1.97213 -6.62603
HEad  -17.8929 -3.15436 -5.86385
LeftShoulder1  -3.88251e-019 9.70628e-020 -3.87848e-018
LeftArm  -30.3821 53.409 -44.4011
LeftForeArm  -3.03782 -39.1366 9.06355
LeftHand  -6.32599 -11.0521 43.7966
RightShoulder  3.76978 8.1118 19.1237
RightArm  -11.1766 -39.4235 19.3307
RightForeArm  -2.6239 53.4677 -37.2211
RightHand  -1.01827 4.3098 -12.1036
LeftUpLeg  -72.6357 5.09216 -6.38006
LeftLeg  57.4068 -6.88013 12.5823
LeftFoot  -11.5148 0.0283635 -3.99692
LeftToes  1.69338e-011 3.79281e-011 -2.20049e-011
261
root  2.96514 30.6203 -33.6463 -166.863 7.33231 177.202
RightUpLeg  -50.4331 -0.748912 0.539908
RightLeg  77.0487 13.6604 -14.8566
RightFoot  -39.6465 2.27824 9.10116
RightToes  -1.16415e-010 -3.18055e-015 -2.98177e-016
Spine  39.365 -4.16492 9.4719
Spine1  -4.51174 -1.44242 -8.61184
HEad  -17.3034 -2.96555 -5.44413
LeftShoulder1  -3.88251e-019 9.70628e-020 -3.87848e-018
LeftArm  -30.2732 54.2602 -44.7635
LeftForeArm  -4.07757 -35.4596 7.81832
LeftHand  -6.51354 -11.1514 44.7182
RightShoulder  3.68856 8.06971 18.6789
RightArm  -12.0934 -38.1308 20.7463
RightForeArm  -1.69273 52.4328 -35.7453
RightHand  -1.30328 4.6217 -14.9459
LeftUpLeg  -72.336 3.43842 -4.86159
LeftLeg  56.1091 -7.68718 10.6315
LeftFoot  -5.46333 0.271629 -4.38299
LeftToes  1.69338e-011 3.79281e-011 -2.20049e-011
262
root  2.77985 30.0098 -34.346 -167.753 7.87639 177.456
RightUpLeg  -49.4997 -0.183535 0.169895
RightLeg  79.9032 14.3109 -15.6698
RightFoot  -41.4002 2.8601 10.7921
RightToes  -1.16415e-010 -3.18055e-015 -2.98177e-016
Spine  39.4295 -3.90902 9.44827
Spine1  -4.00683 -0.863452 -10.0702
HEad  -16.5986 -2.71554 -4.78744
LeftShoulder1  -3.88251e-019 9.70628e-020 -3.87848e-018
LeftArm  -30.9202 54.9938 -45.3939
LeftForeArm  -6.37012 -31.8117 6.62455
LeftHand  -6.4866 -10.936 45.0921
RightShoulder  3.63701 8.04982 18.383
RightArm  -12.0651 -36.7455 21.8679
RightForeArm  -1.3234 51.3315 -34.2405
RightHand  -1.73815 4.96455 -19.2128
LeftUpLeg  -73.132 2.98312 -4.10183
LeftLeg  59.8882 -8.32549 11.1066
LeftFoot  -2.04162 0.323916 -3.38249
LeftToes  1.69338e-011 3.79281e-011 -2.20049e-011
263
root  2.60542 29.3672 -35.0372 -168.688 8.24756 177.472
RightUpLeg  -48.538 0.430662 -0.489597
RightLeg  82.93 15.0879 -16.4769
RightFoot  -42.9547 3.52774 12.6783
RightToes  -1.16415e-010 -3.18055e-015 -2.98177e-016
Spine  39.5176 -3.55838 9.1661
Spine1  -3.55718 -0.443183 -11.1744
HEad  -16.3424 -2.64485 -3.85113
LeftShoulder1  -3.88251e-019 9.70628e-020 -3.87848e-018
LeftArm  -31.667 55.167 -46.1924
LeftForeArm  -9.53048 -28.2636 5.68677
LeftHand  -6.43793 -10.7855 45.1732
RightShoulder  3.66834 8.07896 18.5327
RightArm  -11.6012 -35.2015 22.7062
RightForeArm  -1.14976 50.2231 -32.8141
RightHand  -2.14647 5.09982 -23.3209
LeftUpLeg  -74.1568 3.31797 -4.55775
LeftLeg  65.0824 -9.06268 12.0958
LeftFoot  -3.39381 0.138586 -1.69279
LeftToes  1.69338e-011 3.79281e-011 -2.20049e-011
264
root  2.45588 28.8301 -35.6817 -169.19 7.94176 177.083
RightUpLeg  -47.8755 0.887415 -1.52556
RightLeg  85.6354 15.855 -17.2674
RightFoot  -43.8689 4.22916 14.8005
RightToes  -1.16415e-010 -3.18055e-015 -2.98177e-016
Spine  39.5781 -3.45048 8.70466
Spine1  -3.0819 -0.242214 -12.4483
HEad  -16.776 -2.95479 -2.93654
LeftShoulder1  -3.88251e-019 9.70628e-020 -3.87848e-018
LeftArm  -30.6553 54.6464 -46.9685
LeftForeArm  -13.6212 -24.76 5.49779
LeftHand  -6.33567 -10.5711 45.0792
RightShoulder  3.71438 8.10456 18.7826
RightArm  -11.3956 -33.935 23.6952
RightForeArm  -0.515831 49.1136 -31.5047
RightHand  -2.43634 5.08506 -26.381
LeftUpLeg  -75.0364 3.18893 -5.56457
LeftLeg  68.9776 -9.82873 12.4372
LeftFoot  -6.5753 0.00418108 -0.415301
LeftToes  1.69338e-011 3.79281e-011 -2.20049e-011
